<svg width="99" height="17" viewBox="0 0 99 17" fill="none" xmlns="http://www.w3.org/2000/svg">
<path fill-rule="evenodd" clip-rule="evenodd" d="M0 4.8933L9.28416 10.7499H17V3.36743H9.28416V10.7499V16.6327L0 10.7761V4.8933Z" fill="url(#paint0_linear_764_8358)"/>
<path d="M28.7344 3.78906H35.2578C36.0547 3.78906 36.7474 3.875 37.3359 4.04688C37.9297 4.21354 38.4219 4.44531 38.8125 4.74219C39.2031 5.03906 39.4922 5.39323 39.6797 5.80469C39.8724 6.21094 39.9688 6.65104 39.9688 7.125C39.9688 7.90104 39.724 8.58073 39.2344 9.16406C39.7969 9.4974 40.2161 9.92969 40.4922 10.4609C40.7682 10.9922 40.9062 11.5964 40.9062 12.2734C40.9062 12.8411 40.8099 13.3542 40.6172 13.8125C40.4297 14.2708 40.1406 14.6641 39.75 14.9922C39.3646 15.3151 38.875 15.5651 38.2812 15.7422C37.6927 15.9141 36.9974 16 36.1953 16H28.7344V3.78906ZM36.2109 8.47656C36.4245 8.47656 36.6328 8.48438 36.8359 8.5C37.1849 8.16667 37.3594 7.78646 37.3594 7.35938C37.3594 6.91667 37.1849 6.57552 36.8359 6.33594C36.4922 6.09115 35.987 5.96875 35.3203 5.96875H31.2109V8.47656H36.2109ZM36.2578 13.8438C36.9245 13.8438 37.4297 13.7005 37.7734 13.4141C38.1224 13.1276 38.2969 12.724 38.2969 12.2031C38.2969 11.6823 38.1224 11.276 37.7734 10.9844C37.4297 10.6927 36.9245 10.5469 36.2578 10.5469H31.2109V13.8438H36.2578ZM43.1328 6.78125H45.4453V8.10938C45.9557 7.72917 46.4948 7.40104 47.0625 7.125C47.6302 6.84896 48.1953 6.63802 48.7578 6.49219L49.4375 8.60938C48.5469 8.69792 47.763 8.89844 47.0859 9.21094C46.4141 9.51823 45.8672 9.95312 45.4453 10.5156V16H43.1328V6.78125ZM50.7266 13.0938C50.7266 12.651 50.8229 12.2474 51.0156 11.8828C51.2083 11.5182 51.4974 11.2057 51.8828 10.9453C52.2682 10.6797 52.7474 10.4766 53.3203 10.3359C53.8984 10.1901 54.5703 10.1172 55.3359 10.1172C55.9036 10.1172 56.5 10.1589 57.125 10.2422C57.7552 10.3255 58.4036 10.4531 59.0703 10.625C59.0443 10.3333 58.9557 10.0651 58.8047 9.82031C58.6536 9.57031 58.4427 9.35677 58.1719 9.17969C57.9062 8.9974 57.5833 8.85677 57.2031 8.75781C56.8281 8.65885 56.401 8.60938 55.9219 8.60938C55.6615 8.60938 55.375 8.625 55.0625 8.65625C54.75 8.6875 54.4271 8.73438 54.0938 8.79688C53.7604 8.85938 53.4297 8.9375 53.1016 9.03125C52.7786 9.125 52.4766 9.23698 52.1953 9.36719L51.4922 7.46875C51.8411 7.34375 52.2135 7.22917 52.6094 7.125C53.0104 7.02083 53.4193 6.93229 53.8359 6.85938C54.2526 6.78125 54.6693 6.72135 55.0859 6.67969C55.5026 6.63802 55.9062 6.61719 56.2969 6.61719C58.0208 6.61719 59.3021 7.05729 60.1406 7.9375C60.9792 8.81771 61.3984 10.1667 61.3984 11.9844V16H59.0859V15.1328C58.8464 15.2734 58.5833 15.4062 58.2969 15.5312C58.0156 15.6562 57.7083 15.7656 57.375 15.8594C57.0417 15.9531 56.6823 16.026 56.2969 16.0781C55.9167 16.1354 55.513 16.1641 55.0859 16.1641C54.3672 16.1641 53.7344 16.0859 53.1875 15.9297C52.6458 15.7734 52.1927 15.5573 51.8281 15.2812C51.4635 15.0052 51.1875 14.6823 51 14.3125C50.8177 13.9375 50.7266 13.5312 50.7266 13.0938ZM53.1641 13.0156C53.1641 13.1667 53.2031 13.3125 53.2812 13.4531C53.3594 13.5885 53.4844 13.7109 53.6562 13.8203C53.8281 13.9245 54.0469 14.0104 54.3125 14.0781C54.5833 14.1406 54.9089 14.1719 55.2891 14.1719C55.6953 14.1719 56.0885 14.1354 56.4688 14.0625C56.849 13.9896 57.2031 13.8932 57.5312 13.7734C57.8594 13.6536 58.1562 13.5156 58.4219 13.3594C58.6875 13.2031 58.9089 13.0417 59.0859 12.875V12.4688C58.7318 12.3698 58.3802 12.2865 58.0312 12.2188C57.6875 12.151 57.3568 12.099 57.0391 12.0625C56.7266 12.0208 56.4297 11.9922 56.1484 11.9766C55.8724 11.9609 55.6302 11.9531 55.4219 11.9531C54.9896 11.9531 54.6302 11.9818 54.3438 12.0391C54.0573 12.0964 53.8255 12.1745 53.6484 12.2734C53.4714 12.3672 53.3464 12.4792 53.2734 12.6094C53.2005 12.7396 53.1641 12.875 53.1641 13.0156ZM65.6797 5.52344C65.4505 5.52344 65.2422 5.49219 65.0547 5.42969C64.8724 5.36198 64.7161 5.27344 64.5859 5.16406C64.4557 5.04948 64.3542 4.91927 64.2812 4.77344C64.2135 4.6224 64.1797 4.46354 64.1797 4.29688C64.1797 4.125 64.2135 3.96615 64.2812 3.82031C64.3542 3.66927 64.4557 3.53906 64.5859 3.42969C64.7161 3.32031 64.8724 3.23438 65.0547 3.17188C65.2422 3.10417 65.4505 3.07031 65.6797 3.07031C65.9141 3.07031 66.1224 3.10417 66.3047 3.17188C66.4922 3.23438 66.651 3.32031 66.7812 3.42969C66.9115 3.53906 67.0104 3.66927 67.0781 3.82031C67.151 3.96615 67.1875 4.125 67.1875 4.29688C67.1875 4.46354 67.151 4.6224 67.0781 4.77344C67.0104 4.91927 66.9115 5.04948 66.7812 5.16406C66.651 5.27344 66.4922 5.36198 66.3047 5.42969C66.1224 5.49219 65.9141 5.52344 65.6797 5.52344ZM64.5234 6.78125H66.8359V16H64.5234V6.78125ZM69.8672 3.03906H72.1797V16H69.8672V3.03906ZM75.2109 3.03906H77.5234V16H75.2109V3.03906ZM80.0547 11.3594C80.0547 10.7344 80.1823 10.138 80.4375 9.57031C80.6927 8.9974 81.0599 8.49219 81.5391 8.05469C82.0182 7.61719 82.6042 7.26823 83.2969 7.00781C83.9948 6.7474 84.7865 6.61719 85.6719 6.61719C86.5521 6.61719 87.3438 6.75 88.0469 7.01562C88.7552 7.27604 89.3542 7.63542 89.8438 8.09375C90.3385 8.55208 90.7161 9.09115 90.9766 9.71094C91.2422 10.3307 91.375 10.9948 91.375 11.7031C91.375 11.7917 91.3724 11.888 91.3672 11.9922C91.3672 12.0911 91.362 12.1823 91.3516 12.2656H82.6328C82.7318 12.5417 82.8906 12.7943 83.1094 13.0234C83.3333 13.2526 83.612 13.4505 83.9453 13.6172C84.2786 13.7839 84.6641 13.9141 85.1016 14.0078C85.5391 14.0964 86.0234 14.1406 86.5547 14.1406C87.0859 14.1406 87.6146 14.0859 88.1406 13.9766C88.6667 13.862 89.1693 13.7188 89.6484 13.5469L90.4297 15.3125C90.1276 15.4531 89.8203 15.5781 89.5078 15.6875C89.2005 15.7917 88.8776 15.8802 88.5391 15.9531C88.2057 16.0208 87.8542 16.0729 87.4844 16.1094C87.1198 16.1458 86.7344 16.1641 86.3281 16.1641C85.2917 16.1641 84.3828 16.0391 83.6016 15.7891C82.8203 15.5391 82.1667 15.1979 81.6406 14.7656C81.1146 14.3333 80.7188 13.8255 80.4531 13.2422C80.1875 12.6589 80.0547 12.0312 80.0547 11.3594ZM88.9219 10.4609C88.8385 10.2057 88.7083 9.96875 88.5312 9.75C88.3594 9.52604 88.1432 9.33333 87.8828 9.17188C87.6224 9.00521 87.3203 8.875 86.9766 8.78125C86.6328 8.6875 86.2552 8.64062 85.8438 8.64062C85.4062 8.64062 85.0078 8.6901 84.6484 8.78906C84.2891 8.88802 83.974 9.02083 83.7031 9.1875C83.4323 9.35417 83.2057 9.54688 83.0234 9.76562C82.8464 9.98438 82.7161 10.2161 82.6328 10.4609H88.9219Z" fill="#282222"/>
<defs>
<linearGradient id="paint0_linear_764_8358" x1="14.3427" y1="8.72457" x2="9.58319" y2="12.5343" gradientUnits="userSpaceOnUse">
<stop stop-color="#567CF0"/>
<stop offset="0.910674" stop-color="#F0EA56"/>
</linearGradient>
</defs>
</svg>
